# xmcd
#
# Track frame offsets:
#	150
#	12054
#	27454
#	40953
#	53967
#	65932
#	85710
#	102231
#	114987
#	128405
#	138946
#	147729
#	159686
#
# Disc length: 2213 seconds
#
# Revision: 1
# Processed by: cddbd v1.5.2PL0 Copyright (c) Steve Scherf et al.
# Submitted via: audiograbber 1.83.01
#
DISCID=b308a30d
DTITLE=Springfield - Opening
DYEAR=2002
DGENRE=Country
TTITLE0=Better Days
TTITLE1=Shiver In My Back
TTITLE2=Blue Blue Ridge
TTITLE3=The Old Man
TTITLE4=Summer
TTITLE5=Grandpa's Memory
TTITLE6=Mystery River
TTITLE7=Face On The Cutting Room Floor
TTITLE8=Pepleg
TTITLE9=Shadow In My Heart
TTITLE10=Black Eyed Susie
TTITLE11=High Lonesome Sound
TTITLE12=Unwind
EXTD=
EXTT0=
EXTT1=
EXTT2=
EXTT3=
EXTT4=
EXTT5=
EXTT6=
EXTT7=
EXTT8=
EXTT9=
EXTT10=
EXTT11=
EXTT12=
PLAYORDER=
